<?xml version="1.0" standalone="no"?>
<!DOCTYPE svg PUBLIC "-//W3C//DTD SVG 20010904//EN"
 "http://www.w3.org/TR/2001/REC-SVG-20010904/DTD/svg10.dtd">
<svg version="1.0" xmlns="http://www.w3.org/2000/svg"
 width="394.000000pt" height="386.000000pt" viewBox="0 0 394.000000 386.000000"
 preserveAspectRatio="xMidYMid meet">

<g transform="translate(0.000000,386.000000) scale(0.100000,-0.100000)"
fill="#000000" stroke="none">
<path d="M2330 3463 c-146 -15 -332 -95 -445 -190 -91 -76 -155 -157 -209
-263 -51 -100 -78 -190 -111 -375 -43 -240 -39 -232 -265 -610 -743 -1250
-814 -1371 -806 -1383 3 -6 59 -20 123 -33 106 -21 145 -24 393 -24 295 0 354
7 510 60 269 91 527 336 675 640 70 143 87 211 88 355 1 247 -64 442 -186 558
-66 61 -109 73 -168 47 -83 -38 -102 -132 -43 -217 16 -22 37 -52 47 -67 29
-44 67 -178 73 -264 14 -182 -91 -399 -291 -602 -131 -133 -234 -186 -426
-219 -103 -18 -349 -33 -349 -22 0 4 28 55 63 114 35 59 202 341 372 627 169
286 329 561 355 610 51 95 63 138 120 430 42 214 79 293 183 392 88 84 173
128 289 151 228 45 458 -78 577 -307 l43 -84 -5 -316 c-5 -359 -12 -404 -82
-611 -101 -293 -233 -487 -521 -763 -122 -117 -156 -173 -156 -256 0 -137 100
-243 229 -245 61 0 98 21 126 75 23 43 17 88 -18 141 l-27 40 140 141 c141
145 216 238 302 376 144 233 255 544 281 790 6 62 9 228 7 396 l-3 290 -33 77
c-69 160 -140 258 -262 362 -69 59 -212 130 -310 155 -77 19 -217 31 -280 24z"/>
<path d="M2085 2842 c-61 -38 -84 -95 -59 -148 23 -49 357 -364 385 -364 29 0
375 337 385 375 15 60 -43 138 -111 151 -43 8 -89 -18 -198 -111 -70 -60 -80
-66 -95 -53 -9 8 -46 39 -82 70 -112 96 -167 115 -225 80z"/>
</g>
</svg>
